# Blender v2.81 (sub 16) OBJ File: ''
# www.blender.org
mtllib ant.mtl
o Peau_14
v 0.399954 0.678947 -0.150000
v 0.374791 0.528060 0.000000
v 0.100109 0.669303 0.000000
v 0.549876 0.683769 0.000000
v 1.319615 1.100905 0.557359
v 1.334615 1.100905 0.572359
v 1.349615 1.100905 0.557359
v 1.334615 1.100905 0.542359
v 0.997927 0.667063 -0.001116
v 1.319615 1.100905 0.557359
v 1.334615 1.100905 0.542359
v 0.975427 0.667063 0.021384
v 0.997927 0.667063 -0.001116
v 1.334615 1.100905 0.542359
v 1.349615 1.100905 0.557359
v 1.020427 0.667063 0.021384
v 0.975427 0.667063 0.021384
v 1.334615 1.100905 0.572359
v 1.319615 1.100905 0.557359
v 0.997927 0.667063 0.043884
v 1.020427 0.667063 0.021384
v 1.349615 1.100905 0.557359
v 1.334615 1.100905 0.572359
v 0.997927 0.667063 0.043884
v 1.319615 1.100905 -0.565535
v 1.334615 1.100905 -0.550535
v 1.349615 1.100905 -0.565535
v 1.334615 1.100905 -0.580535
v 0.997927 0.667151 -0.044483
v 1.319615 1.100905 -0.565535
v 1.334615 1.100905 -0.580535
v 0.975427 0.667151 -0.021983
v 0.997927 0.667151 -0.044483
v 1.334615 1.100905 -0.580535
v 1.349615 1.100905 -0.565535
v 1.020427 0.667151 -0.021983
v 0.975427 0.667151 -0.021983
v 1.334615 1.100905 -0.550535
v 1.319615 1.100905 -0.565535
v 0.997927 0.667151 0.000517
v 1.020427 0.667151 -0.021983
v 1.349615 1.100905 -0.565535
v 1.334615 1.100905 -0.550535
v 0.997927 0.667151 0.000517
v 0.094367 -0.000000 0.905465
v 0.124367 -0.000000 0.905465
v 0.109367 -0.000000 0.920465
v 0.109367 -0.000000 0.890465
v 0.033662 0.688868 -0.025881
v 0.109367 -0.000000 0.890465
v 0.094367 -0.000000 0.905465
v 0.011162 0.688868 -0.003381
v 0.033662 0.688868 -0.025881
v 0.124367 -0.000000 0.905465
v 0.109367 -0.000000 0.890465
v 0.056162 0.688868 -0.003381
v 0.011162 0.688868 -0.003381
v 0.094367 -0.000000 0.905465
v 0.109367 -0.000000 0.920465
v 0.033662 0.688868 0.019119
v 0.056162 0.688868 -0.003381
v 0.109367 -0.000000 0.920465
v 0.124367 -0.000000 0.905465
v 0.033662 0.688868 0.019119
v -0.473788 -0.000000 0.907710
v -0.443788 -0.000000 0.907710
v -0.458788 -0.000000 0.922710
v -0.458788 -0.000000 0.892710
v -0.148373 0.521639 -0.025881
v -0.458788 -0.000000 0.892710
v -0.473788 -0.000000 0.907710
v -0.170873 0.521639 -0.003381
v -0.148373 0.521639 -0.025881
v -0.443788 -0.000000 0.907710
v -0.458788 -0.000000 0.892710
v -0.125873 0.521639 -0.003381
v -0.170873 0.521639 -0.003381
v -0.473788 -0.000000 0.907710
v -0.458788 -0.000000 0.922710
v -0.148373 0.521639 0.019119
v -0.125873 0.521639 -0.003381
v -0.458788 -0.000000 0.922710
v -0.443788 -0.000000 0.907710
v -0.148373 0.521639 0.019119
v 0.717233 -0.000000 0.900807
v 0.747233 -0.000000 0.900807
v 0.732233 -0.000000 0.915807
v 0.732233 -0.000000 0.885807
v 0.395545 0.667827 -0.025881
v 0.732233 -0.000000 0.885807
v 0.717233 -0.000000 0.900807
v 0.373045 0.667827 -0.003381
v 0.395545 0.667827 -0.025881
v 0.747233 -0.000000 0.900807
v 0.732233 -0.000000 0.885807
v 0.418045 0.667827 -0.003381
v 0.373045 0.667827 -0.003381
v 0.717233 -0.000000 0.900807
v 0.732233 -0.000000 0.915807
v 0.395545 0.667827 0.019119
v 0.418045 0.667827 -0.003381
v 0.732233 -0.000000 0.915807
v 0.747233 -0.000000 0.900807
v 0.395545 0.667827 0.019119
v -0.473788 0.000000 -0.895186
v -0.443788 0.000000 -0.895186
v -0.458788 0.000000 -0.880186
v -0.458788 0.000000 -0.910186
v -0.148373 0.521639 -0.025881
v -0.458788 0.000000 -0.910186
v -0.473788 0.000000 -0.895186
v -0.170873 0.521639 -0.003381
v -0.148373 0.521639 -0.025881
v -0.443788 0.000000 -0.895186
v -0.458788 0.000000 -0.910186
v -0.125873 0.521639 -0.003381
v -0.170873 0.521639 -0.003381
v -0.473788 0.000000 -0.895186
v -0.458788 0.000000 -0.880186
v -0.148373 0.521639 0.019119
v -0.125873 0.521639 -0.003381
v -0.458788 0.000000 -0.880186
v -0.443788 0.000000 -0.895186
v -0.148373 0.521639 0.019119
v 0.094367 0.000000 -0.895186
v 0.124367 0.000000 -0.895186
v 0.109367 0.000000 -0.880186
v 0.109367 0.000000 -0.910186
v 0.033662 0.688868 -0.025881
v 0.109367 0.000000 -0.910186
v 0.094367 0.000000 -0.895186
v 0.011162 0.688868 -0.003381
v 0.033662 0.688868 -0.025881
v 0.124367 0.000000 -0.895186
v 0.109367 0.000000 -0.910186
v 0.056162 0.688868 -0.003381
v 0.011162 0.688868 -0.003381
v 0.094367 0.000000 -0.895186
v 0.109367 0.000000 -0.880186
v 0.033662 0.688868 0.019119
v 0.056162 0.688868 -0.003381
v 0.109367 0.000000 -0.880186
v 0.124367 0.000000 -0.895186
v 0.033662 0.688868 0.019119
v 0.717233 0.000000 -0.895186
v 0.747233 0.000000 -0.895186
v 0.732233 0.000000 -0.880186
v 0.732233 0.000000 -0.910186
v 0.395545 0.667827 -0.025881
v 0.732233 0.000000 -0.910186
v 0.717233 0.000000 -0.895186
v 0.373045 0.667827 -0.003381
v 0.395545 0.667827 -0.025881
v 0.747233 0.000000 -0.895186
v 0.732233 0.000000 -0.910186
v 0.418045 0.667827 -0.003381
v 0.373045 0.667827 -0.003381
v 0.717233 0.000000 -0.895186
v 0.732233 0.000000 -0.880186
v 0.395545 0.667827 0.019119
v 0.418045 0.667827 -0.003381
v 0.732233 0.000000 -0.880186
v 0.747233 0.000000 -0.895186
v 0.395545 0.667827 0.019119
v -0.537253 0.538644 -0.450000
v -1.137254 0.313644 0.000000
v -1.137253 0.538644 -0.450000
v -0.237253 0.313644 0.000000
v -0.087253 0.538644 0.000000
v -0.237253 0.313644 0.000000
v -0.537253 0.538644 -0.450000
v -1.137254 0.313644 0.000000
v -1.512254 0.538644 0.000000
v -1.137253 0.538644 -0.450000
v -0.537253 0.538644 0.450000
v -0.237253 0.313644 0.000000
v -0.087253 0.538644 0.000000
v -1.137254 0.313644 0.000000
v -1.137253 0.538644 0.450000
v -1.512254 0.538644 0.000000
v -1.137253 0.838644 0.000000
v -1.137253 0.538644 -0.450000
v -1.512254 0.538644 0.000000
v -0.537253 0.538644 0.450000
v -0.357253 0.801144 0.000000
v -1.137253 0.838644 0.000000
v -0.087253 0.538644 0.000000
v -1.137253 0.538644 0.450000
v -1.512254 0.538644 0.000000
v -0.537253 0.538644 -0.450000
v -1.137253 0.538644 -0.450000
v -1.137253 0.838644 0.000000
v -0.357253 0.801144 0.000000
v -0.087253 0.538644 0.000000
v -0.056720 0.577921 0.225000
v -0.195760 0.521639 0.000000
v 0.027371 0.450136 0.000000
v 0.221362 0.690485 0.000000
v -0.195760 0.521639 0.000000
v -0.056720 0.577921 -0.225000
v 0.027371 0.450136 0.000000
v 0.221362 0.690485 0.000000
v -0.056720 0.577921 0.225000
v 0.221362 0.690485 0.000000
v -0.001769 0.761987 0.000000
v -0.195760 0.521639 0.000000
v -0.001769 0.761987 0.000000
v -0.056720 0.577921 -0.225000
v -0.195760 0.521639 0.000000
v 0.221362 0.690485 0.000000
v 0.688608 0.606412 0.300000
v 0.906317 0.351260 0.000000
v 1.102950 0.430854 0.225000
v 0.630089 0.468298 0.000000
v 0.688608 0.606412 -0.300000
v 1.102950 0.430854 -0.225000
v 0.481437 0.694191 0.000000
v 0.630089 0.468298 0.000000
v 0.688608 0.606412 0.300000
v 0.609013 0.803045 0.000000
v 0.481437 0.694191 0.000000
v 0.609013 0.803045 0.000000
v 0.688608 0.606412 -0.300000
v 0.630089 0.468298 0.000000
v 1.121672 0.667285 0.000000
v 1.102950 0.430854 -0.225000
v 0.688608 0.606412 -0.300000
v 0.609013 0.803045 0.000000
v 1.241064 0.372335 0.000000
v 1.102950 0.430854 -0.225000
v 1.121672 0.667285 0.000000
v 0.906317 0.351260 0.000000
v 1.102950 0.430854 0.225000
v 1.241064 0.372335 0.000000
v 1.121672 0.667285 0.000000
v 0.906317 0.351260 0.000000
v 1.121672 0.667285 0.000000
v 0.609013 0.803045 0.000000
v 0.688608 0.606412 0.300000
v 1.102950 0.430854 0.225000
v 0.399954 0.678947 -0.150000
v 0.275194 0.825012 0.000000
v 0.549876 0.683769 0.000000
v 0.399268 0.678972 0.150000
v 0.549191 0.683794 0.000000
v 0.274508 0.825037 0.000000
v 0.374791 0.528060 0.000000
v 0.549876 0.683769 0.000000
v 0.399954 0.678947 0.150000
v 0.100109 0.669303 0.000000
v 0.275194 0.825012 0.000000
v 0.100109 0.669303 0.000000
v 0.399954 0.678947 0.150000
v 0.399954 0.678947 -0.150000
v 0.876895 0.652024 0.116448
v 0.830865 0.666874 0.136914
v 0.848569 0.691624 0.171024
v 0.876895 0.652024 0.116448
v 0.848569 0.691624 0.171024
v 0.848569 0.647164 0.160404
v 0.848569 0.638272 -0.158280
v 0.830865 0.666874 -0.136914
v 0.848569 0.691624 -0.171024
v 0.830865 0.666874 0.136914
v 0.848569 0.647164 0.160404
v 0.848569 0.691624 0.171024
v 0.876895 0.652024 -0.116448
v 0.848569 0.691624 -0.171024
v 0.830865 0.666874 -0.136914
v 0.848569 0.638272 -0.158280
v 0.848569 0.691624 -0.171024
v 0.876895 0.652024 -0.116448
v 1.102693 0.430854 0.225148
v 0.906317 0.368723 0.014547
v 1.310810 0.264725 0.014967
v 1.241064 0.372335 -0.000848
v 1.310810 0.264725 0.014967
v 0.906317 0.368723 0.014547
v 1.241064 0.372335 -0.000848
v 1.102693 0.430854 0.225148
v 1.310810 0.264725 0.014967
v 1.102950 0.430854 -0.225000
v 1.310828 0.264725 -0.015422
v 0.906317 0.368723 -0.015145
v 1.241064 0.372335 0.000000
v 0.906317 0.368723 -0.015145
v 1.310828 0.264725 -0.015422
v 1.241064 0.372335 0.000000
v 1.310828 0.264725 -0.015422
v 1.102950 0.430854 -0.225000
vt 0.299230 0.781112
vt 0.289913 0.776569
vt 0.299230 0.764884
vt 0.229775 0.669788
vt 0.284651 0.731395
vt 0.284651 0.730369
vt 0.283625 0.730369
vt 0.283625 0.731395
vt 0.045583 0.849867
vt 0.038638 0.590930
vt 0.045583 0.592269
vt 0.035166 0.847859
vt 0.155676 0.592230
vt 0.155676 0.844452
vt 0.151157 0.850575
vt 0.149495 0.600606
vt 0.089818 0.590930
vt 0.085312 0.848531
vt 0.089818 0.842382
vt 0.083668 0.599323
vt 0.321648 0.773681
vt 0.315265 0.766332
vt 0.314257 0.766136
vt 0.311235 0.771651
vt 0.287035 0.731395
vt 0.287035 0.730369
vt 0.286008 0.730369
vt 0.286008 0.731395
vt 0.076342 0.599444
vt 0.082528 0.847556
vt 0.078236 0.853454
vt 0.082528 0.590930
vt 0.116123 0.848061
vt 0.119591 0.592230
vt 0.126524 0.593623
vt 0.126524 0.850151
vt 0.104577 0.850911
vt 0.114983 0.593608
vt 0.110507 0.593461
vt 0.114983 0.852979
vt 0.315430 0.767369
vt 0.324702 0.780835
vt 0.329007 0.774962
vt 0.316333 0.766136
vt 0.971843 0.130516
vt 0.978916 0.123444
vt 0.978916 0.130516
vt 0.971843 0.123444
vt 0.968925 0.111431
vt 0.968925 0.074111
vt 0.962327 0.070544
vt 0.960039 0.106079
vt 0.914042 0.093248
vt 0.907530 0.128290
vt 0.914042 0.123299
vt 0.905950 0.099450
vt 0.925119 0.094184
vt 0.925119 0.122641
vt 0.918635 0.127649
vt 0.917047 0.100418
vt 0.969665 0.064033
vt 0.963098 0.011415
vt 0.969665 0.015006
vt 0.960792 0.058646
vt 0.971843 0.138729
vt 0.978916 0.131656
vt 0.978916 0.138729
vt 0.971843 0.131656
vt 0.980389 0.074948
vt 0.980389 0.076844
vt 0.974450 0.071775
vt 0.974397 0.067336
vt 0.937837 0.025934
vt 0.931326 0.072196
vt 0.937837 0.069434
vt 0.928070 0.030077
vt 0.948729 0.025934
vt 0.948729 0.066619
vt 0.942225 0.069404
vt 0.938976 0.030109
vt 0.987482 0.073498
vt 0.981568 0.071775
vt 0.987482 0.076860
vt 0.981529 0.065863
vt 0.959660 0.139959
vt 0.988268 0.131656
vt 0.959660 0.132886
vt 0.988268 0.138729
vt 0.950314 0.157899
vt 0.947853 0.119356
vt 0.940996 0.116945
vt 0.940432 0.154282
vt 0.970118 0.012646
vt 0.963701 0.054258
vt 0.970118 0.047118
vt 0.963625 0.019871
vt 0.973257 0.071775
vt 0.973257 0.091514
vt 0.966861 0.098682
vt 0.966792 0.079020
vt 0.926930 0.093044
vt 0.920111 0.025934
vt 0.926930 0.028363
vt 0.917047 0.089398
vt 0.980056 0.138729
vt 0.987128 0.131656
vt 0.987128 0.138729
vt 0.980056 0.131656
vt 0.949868 0.030037
vt 0.953129 0.064033
vt 0.959652 0.061297
vt 0.959652 0.025934
vt 0.978450 0.020520
vt 0.984461 0.017841
vt 0.978772 0.012646
vt 0.984461 0.028301
vt 0.971258 0.021949
vt 0.971595 0.012646
vt 0.977310 0.017819
vt 0.977310 0.029706
vt 0.938976 0.074616
vt 0.948774 0.095188
vt 0.942244 0.097901
vt 0.948774 0.070544
vt 0.960800 0.131746
vt 0.967872 0.124674
vt 0.967872 0.131746
vt 0.960800 0.124674
vt 0.970805 0.017703
vt 0.972706 0.058417
vt 0.978967 0.053616
vt 0.978967 0.011415
vt 0.928070 0.106040
vt 0.937045 0.076944
vt 0.930677 0.073336
vt 0.937045 0.111445
vt 0.949914 0.105071
vt 0.952498 0.070544
vt 0.958899 0.074127
vt 0.958899 0.110442
vt 0.970065 0.076799
vt 0.978246 0.100784
vt 0.971956 0.105570
vt 0.978246 0.070544
vt 0.987128 0.130516
vt 0.980056 0.123444
vt 0.987128 0.123444
vt 0.980056 0.130516
vt 0.955983 0.019988
vt 0.956303 0.055803
vt 0.962485 0.048897
vt 0.962485 0.012646
vt 0.905950 0.088485
vt 0.915907 0.028350
vt 0.909228 0.025934
vt 0.915907 0.092109
vt 0.894856 0.090649
vt 0.898092 0.025934
vt 0.904810 0.028330
vt 0.904810 0.094244
vt 0.898281 0.102704
vt 0.904810 0.119262
vt 0.898608 0.126144
vt 0.904810 0.095384
vt 0.293851 0.692287
vt 0.269508 0.667226
vt 0.293851 0.667226
vt 0.269508 0.706802
vt 0.273324 0.764884
vt 0.273324 0.777968
vt 0.245001 0.776961
vt 0.242366 0.739524
vt 0.242366 0.760683
vt 0.218677 0.745125
vt 0.245001 0.712879
vt 0.269343 0.727394
vt 0.262247 0.738386
vt 0.269343 0.683849
vt 0.245001 0.683849
vt 0.264475 0.667226
vt 0.294054 0.706968
vt 0.269508 0.716035
vt 0.294054 0.730203
vt 0.219423 0.714532
vt 0.244835 0.722621
vt 0.244835 0.684839
vt 0.237637 0.739359
vt 0.218677 0.685512
vt 0.236226 0.667226
vt 0.270287 0.764719
vt 0.299317 0.764719
vt 0.299317 0.738552
vt 0.261547 0.739524
vt 0.245001 0.747150
vt 0.335832 0.725112
vt 0.323219 0.728589
vt 0.325150 0.717419
vt 0.331547 0.705897
vt 0.316602 0.738552
vt 0.329215 0.742030
vt 0.318533 0.749722
vt 0.329215 0.760173
vt 0.329264 0.778482
vt 0.329264 0.760339
vt 0.320321 0.767306
vt 0.316602 0.781780
vt 0.327336 0.676660
vt 0.336279 0.665484
vt 0.323618 0.666154
vt 0.336279 0.683627
vt 0.311573 0.666154
vt 0.301343 0.679486
vt 0.294016 0.666441
vt 0.311573 0.678414
vt 0.311573 0.694643
vt 0.294016 0.692531
vt 0.222749 0.764094
vt 0.235423 0.760849
vt 0.235423 0.777077
vt 0.218677 0.771113
vt 0.315810 0.701526
vt 0.311738 0.694507
vt 0.328485 0.688543
vt 0.328485 0.704771
vt 0.300721 0.764181
vt 0.316437 0.765970
vt 0.316437 0.743898
vt 0.299483 0.738552
vt 0.311339 0.723169
vt 0.323054 0.717342
vt 0.323054 0.733159
vt 0.312272 0.706968
vt 0.323452 0.678003
vt 0.311738 0.672176
vt 0.323452 0.666154
vt 0.312671 0.688377
vt 0.295458 0.708757
vt 0.294220 0.734387
vt 0.311174 0.729041
vt 0.311174 0.706968
vt 0.305763 0.695879
vt 0.294016 0.696906
vt 0.305763 0.706143
vt 0.336324 0.688543
vt 0.328651 0.689436
vt 0.336324 0.700335
vt 0.329429 0.771571
vt 0.330961 0.760339
vt 0.338746 0.767027
vt 0.338746 0.783256
vt 0.338165 0.748387
vt 0.329381 0.748208
vt 0.340344 0.760173
vt 0.338165 0.736595
vt 0.062288 0.965031
vt 0.051404 0.978748
vt 0.062288 0.989416
vt 0.050264 0.965031
vt 0.050264 0.989416
vt 0.039380 0.978748
vt 0.063428 0.967470
vt 0.076489 0.965031
vt 0.076489 0.980272
vt 0.077628 0.969604
vt 0.088512 0.965031
vt 0.088512 0.980272
vt 0.038240 0.989416
vt 0.038240 0.965031
vt 0.027357 0.975700
vt 0.026217 0.965031
vt 0.026217 0.983320
vt 0.008802 0.966251
vt 0.381077 0.992523
vt 0.381077 0.894308
vt 0.269040 0.976997
vt 0.208915 0.961433
vt 0.226624 0.993871
vt 0.226624 0.854623
vt 0.403378 0.904183
vt 0.435621 0.988723
vt 0.435621 0.875615
vt 0.320893 0.866875
vt 0.320893 0.979809
vt 0.223693 0.880091
vt 0.227764 0.962412
vt 0.257170 0.854623
vt 0.257170 0.993876
vt 0.360998 0.899439
vt 0.393116 0.870749
vt 0.393116 0.983683
vn 0.1298 -0.7099 -0.6923
vn -0.3280 -0.6379 -0.6967
vn 0.5597 -0.6293 -0.5392
vn 0.0000 1.0000 0.0000
vn -0.4044 0.8204 -0.4044
vn 0.6701 0.3194 -0.6701
vn -0.6749 -0.2984 0.6749
vn -0.6749 -0.2983 0.6749
vn 0.4090 -0.8157 0.4090
vn -0.6725 -0.3091 -0.6725
vn 0.4066 -0.8181 -0.4066
vn -0.4020 0.8227 0.4020
vn 0.6675 0.3299 0.6675
vn 0.0000 -1.0000 -0.0000
vn -0.4954 -0.7135 -0.4954
vn 0.5354 -0.6533 -0.5354
vn 0.5353 -0.6533 -0.5354
vn 0.5354 -0.6533 -0.5353
vn -0.5394 0.6465 0.5394
vn 0.4993 0.7081 0.4993
vn -0.5456 -0.6361 -0.5456
vn 0.3639 -0.8574 -0.3639
vn -0.3672 0.8546 0.3672
vn 0.5511 0.6266 0.5511
vn -0.4266 -0.7975 -0.4266
vn 0.6040 -0.5200 -0.6040
vn -0.6082 0.5100 0.6082
vn 0.4299 0.7940 0.4299
vn -0.3715 0.8509 -0.3715
vn 0.5581 0.6140 -0.5581
vn -0.5526 -0.6239 0.5526
vn 0.3682 -0.8538 0.3682
vn -0.5441 0.6387 -0.5441
vn 0.5037 0.7019 -0.5037
vn -0.4998 -0.7074 0.4998
vn 0.5400 -0.6456 0.5400
vn -0.6117 0.5016 -0.6117
vn 0.4326 0.7910 -0.4326
vn -0.4293 -0.7946 0.4293
vn 0.6075 -0.5118 0.6075
vn 0.0000 -0.8944 -0.4472
vn 0.6396 -0.4264 -0.6396
vn -0.4729 -0.7881 -0.3941
vn 0.2309 -0.7999 0.5539
vn 0.3502 -0.7233 0.5951
vn 0.6396 -0.4264 0.6396
vn -0.1619 -0.8826 0.4413
vn -0.2438 -0.8674 0.4337
vn -0.4729 -0.7881 0.3941
vn -0.5541 0.6926 -0.4618
vn 0.1974 0.8357 0.5125
vn 0.3135 0.7559 0.5747
vn -0.1618 0.8413 0.5157
vn 0.5719 0.5882 0.5719
vn -0.2824 0.8350 0.4722
vn -0.5541 0.6926 0.4618
vn 0.1974 0.8357 -0.5125
vn 0.0000 0.8321 -0.5547
vn 0.0208 0.8442 -0.5356
vn 0.3135 0.7559 -0.5747
vn 0.5719 0.5882 -0.5719
vn 0.2157 -0.8123 0.5419
vn -0.2807 -0.8759 0.3925
vn 0.2156 -0.8123 0.5419
vn 0.6532 -0.5272 0.5435
vn -0.2807 -0.8759 -0.3925
vn 0.2157 -0.8123 -0.5419
vn 0.2156 -0.8123 -0.5419
vn 0.6532 -0.5272 -0.5435
vn -0.2480 0.8440 0.4755
vn 0.2321 0.7243 0.6492
vn -0.3337 0.6631 0.6700
vn -0.7403 0.5975 0.3080
vn -0.3354 0.6646 -0.6677
vn -0.2480 0.8440 -0.4755
vn -0.7403 0.5975 -0.3080
vn 0.2321 0.7243 -0.6492
vn -0.3023 -0.8231 0.4807
vn -0.3447 -0.9387 0.0000
vn -0.2546 -0.8200 0.5126
vn -0.3901 -0.9208 -0.0000
vn -0.3023 -0.8231 -0.4807
vn -0.2546 -0.8200 -0.5126
vn -0.8098 0.0767 0.5817
vn -0.7713 -0.5075 0.3841
vn -0.8098 0.0768 0.5817
vn -0.5390 0.6317 0.5571
vn -0.8098 0.0767 -0.5817
vn -0.5390 0.6317 -0.5571
vn -0.8098 0.0768 -0.5817
vn -0.7713 -0.5075 -0.3841
vn 0.2991 0.7408 -0.6015
vn 0.3862 0.6197 -0.6833
vn 0.3317 0.7462 -0.5771
vn 0.2228 0.8414 -0.4924
vn 0.6902 -0.4739 -0.5469
vn 0.8384 0.3394 -0.4264
vn 0.0602 -0.9564 -0.2857
vn 0.6902 -0.4739 0.5469
vn 0.8384 0.3394 0.4264
vn 0.0602 -0.9564 0.2857
vn 0.2991 0.7408 0.6015
vn 0.2228 0.8414 0.4924
vn 0.3317 0.7462 0.5771
vn 0.3862 0.6197 0.6833
vn 0.4113 0.8000 -0.4369
vn 0.4113 0.8000 0.4369
vn 0.1298 -0.7099 0.6923
vn 0.5597 -0.6293 0.5392
vn -0.3280 -0.6379 0.6967
vn -0.6645 0.7472 0.0000
vn -0.4091 0.4600 0.7881
vn -0.4091 0.4600 -0.7881
vn 0.0000 0.8094 -0.5873
vn 0.8402 -0.1260 0.5275
vn -0.8402 -0.1260 -0.5275
vn -0.8402 -0.1260 0.5275
vn 0.0000 0.8094 0.5873
vn 0.8402 -0.1260 -0.5275
vn -0.2215 -0.8597 0.4602
vn -0.0434 -0.1727 -0.9840
vn 0.7695 0.5471 0.3295
vn -0.2212 -0.8591 -0.4616
vn -0.0427 -0.1688 0.9847
vn 0.7697 0.5463 -0.3304
usemtl Mat
s 1
f 1/1/1 2/2/1 3/3/2
f 1/1/1 4/4/3 2/2/1
f 5/5/4 6/6/4 7/7/4
f 5/5/4 7/7/4 8/8/4
f 9/9/5 10/10/5 11/11/5
f 9/9/5 12/12/5 10/10/5
f 13/13/6 14/14/6 15/15/6
f 16/16/6 13/13/6 15/15/6
f 17/17/7 18/18/8 19/19/8
f 20/20/7 18/18/8 17/17/7
f 21/21/9 22/22/9 23/23/9
f 21/21/9 23/23/9 24/24/9
f 25/25/4 26/26/4 27/27/4
f 25/25/4 27/27/4 28/28/4
f 29/29/10 30/30/10 31/31/10
f 29/29/10 32/32/10 30/30/10
f 33/33/11 34/34/11 35/35/11
f 36/36/11 33/33/11 35/35/11
f 37/37/12 38/38/12 39/39/12
f 40/40/12 38/38/12 37/37/12
f 41/41/13 42/42/13 43/43/13
f 41/41/13 43/43/13 44/44/13
f 45/45/14 46/46/14 47/47/14
f 45/45/14 48/48/14 46/46/14
f 49/49/15 50/50/15 51/51/15
f 49/49/15 51/51/15 52/52/15
f 53/53/16 54/54/17 55/55/17
f 56/56/18 54/54/17 53/53/16
f 57/57/19 58/58/19 59/59/19
f 60/60/19 57/57/19 59/59/19
f 61/61/20 62/62/20 63/63/20
f 61/61/20 64/64/20 62/62/20
f 65/65/14 66/66/14 67/67/14
f 65/65/14 68/68/14 66/66/14
f 69/69/21 70/70/21 71/71/21
f 69/69/21 71/71/21 72/72/21
f 73/73/22 74/74/22 75/75/22
f 76/76/22 74/74/22 73/73/22
f 77/77/23 78/78/23 79/79/23
f 80/80/23 77/77/23 79/79/23
f 81/81/24 82/82/24 83/83/24
f 81/81/24 84/84/24 82/82/24
f 85/85/14 86/86/14 87/87/14
f 85/85/14 88/88/14 86/86/14
f 89/89/25 90/90/25 91/91/25
f 89/89/25 91/91/25 92/92/25
f 93/93/26 94/94/26 95/95/26
f 96/96/26 94/94/26 93/93/26
f 97/97/27 98/98/27 99/99/27
f 100/100/27 97/97/27 99/99/27
f 101/101/28 102/102/28 103/103/28
f 101/101/28 104/104/28 102/102/28
f 105/105/14 106/106/14 107/107/14
f 105/105/14 108/108/14 106/106/14
f 109/109/29 110/110/29 111/111/29
f 109/109/29 111/111/29 112/112/29
f 113/113/30 114/114/30 115/115/30
f 116/116/30 114/114/30 113/113/30
f 117/117/31 118/118/31 119/119/31
f 120/120/31 117/117/31 119/119/31
f 121/121/32 122/122/32 123/123/32
f 121/121/32 124/124/32 122/122/32
f 125/125/14 126/126/14 127/127/14
f 125/125/14 128/128/14 126/126/14
f 129/129/33 130/130/33 131/131/33
f 129/129/33 131/131/33 132/132/33
f 133/133/34 134/134/34 135/135/34
f 136/136/34 134/134/34 133/133/34
f 137/137/35 138/138/35 139/139/35
f 140/140/35 137/137/35 139/139/35
f 141/141/36 142/142/36 143/143/36
f 141/141/36 144/144/36 142/142/36
f 145/145/14 146/146/14 147/147/14
f 145/145/14 148/148/14 146/146/14
f 149/149/37 150/150/37 151/151/37
f 149/149/37 151/151/37 152/152/37
f 153/153/38 154/154/38 155/155/38
f 156/156/38 154/154/38 153/153/38
f 157/157/39 158/158/39 159/159/39
f 160/160/39 157/157/39 159/159/39
f 161/161/40 162/162/40 163/163/40
f 161/161/40 164/164/40 162/162/40
f 165/165/41 166/166/41 167/167/41
f 165/165/41 168/168/41 166/166/41
f 169/169/42 170/170/42 171/171/42
f 172/172/43 173/173/43 174/174/43
f 175/175/44 176/176/45 177/177/46
f 175/175/44 178/178/47 176/176/45
f 179/179/48 180/180/49 178/178/47
f 175/175/44 179/179/48 178/178/47
f 181/181/50 182/182/50 183/183/50
f 184/184/51 185/185/52 186/186/53
f 187/187/54 185/185/52 184/184/51
f 188/188/55 186/186/53 189/189/56
f 184/184/51 186/186/53 188/188/55
f 190/190/57 191/191/58 192/192/59
f 190/190/57 192/192/59 193/193/60
f 190/190/57 193/193/60 194/194/61
f 195/195/62 196/196/63 197/197/64
f 198/198/65 195/195/62 197/197/64
f 199/199/66 200/200/67 201/201/68
f 200/200/67 202/202/69 201/201/68
f 203/203/70 204/204/71 205/205/72
f 203/203/70 205/205/72 206/206/73
f 207/207/74 208/208/75 209/209/76
f 210/210/77 208/208/75 207/207/74
f 211/211/78 212/212/79 213/213/80
f 214/214/81 215/215/82 212/212/79
f 211/211/78 214/214/81 212/212/79
f 215/215/82 216/216/83 212/212/79
f 217/217/84 218/218/85 219/219/86
f 220/220/87 217/217/84 219/219/86
f 221/221/88 222/222/89 223/223/90
f 224/224/91 221/221/88 223/223/90
f 225/225/92 226/226/93 227/227/94
f 225/225/92 227/227/94 228/228/95
f 229/229/96 230/230/96 231/231/97
f 229/229/96 232/232/98 230/230/96
f 233/233/99 234/234/99 235/235/100
f 233/233/99 236/236/101 234/234/99
f 237/237/102 238/238/103 239/239/104
f 237/237/102 239/239/104 240/240/105
f 241/241/106 242/242/106 243/243/106
f 244/244/107 245/245/107 246/246/107
f 247/247/108 248/248/109 249/249/108
f 250/250/110 247/247/108 249/249/108
f 251/251/111 252/252/111 253/253/112
f 254/254/113 252/252/111 251/251/111
usemtl Mat.1
f 255/255/114 256/256/114 257/257/114
f 258/258/115 259/259/115 260/260/115
f 261/261/116 262/262/116 263/263/116
f 264/264/117 265/265/117 266/266/117
f 267/267/118 268/268/118 269/269/118
f 270/270/119 271/271/119 272/272/119
f 273/273/120 274/274/120 275/275/120
f 276/276/121 277/277/121 278/278/121
f 279/279/122 280/280/122 281/281/122
f 282/282/123 283/283/123 284/284/123
f 285/285/124 286/286/124 287/287/124
f 288/288/125 289/289/125 290/290/125
